<?xml version="1.0" standalone="no"?>
<!DOCTYPE svg PUBLIC "-//W3C//DTD SVG 20010904//EN"
 "http://www.w3.org/TR/2001/REC-SVG-20010904/DTD/svg10.dtd">
<svg version="1.0" xmlns="http://www.w3.org/2000/svg"
 width="700.000000pt" height="700.000000pt" viewBox="0 0 700.000000 700.000000"
 preserveAspectRatio="xMidYMid meet">
<metadata>
Created by potrace 1.14, written by Peter Selinger 2001-2017
</metadata>
<g transform="translate(0.000000,700.000000) scale(0.100000,-0.100000)"
fill="#000000" stroke="none">
<path d="M630 6985 c-314 -63 -555 -307 -616 -623 -12 -62 -14 -450 -14 -2470
0 -1626 4 -2418 11 -2462 50 -313 296 -569 609 -635 39 -8 91 -15 116 -15 43
0 44 0 44 -34 0 -19 6 -67 14 -108 57 -298 271 -529 565 -611 71 -20 105 -21
541 -25 500 -4 763 6 1025 39 711 89 1406 349 2004 751 943 632 1629 1595
1915 2688 126 480 160 844 154 1620 -5 520 -7 539 -81 686 -113 224 -309 373
-555 420 -41 8 -89 14 -108 14 -34 0 -34 1 -34 44 0 25 -7 77 -15 116 -66 313
-322 559 -635 609 -105 17 -4855 13 -4940 -4z"/>
</g>
</svg>
